<svg width="175" height="185" viewBox="0 0 175 185" fill="none" xmlns="http://www.w3.org/2000/svg">
<rect width="175" height="175" fill="#FFFAFA"/>
<path fill-rule="evenodd" clip-rule="evenodd" d="M118.197 31.5487C98.5745 21.4251 74.4606 29.1252 64.337 48.7475C54.2133 68.3698 61.9135 92.4836 81.5358 102.607L81.5344 102.61C88.3297 106.293 90.9589 114.754 87.3984 121.656C83.7925 128.645 75.2035 131.387 68.2143 127.781L69.5898 125.115C75.1065 127.962 81.8861 125.797 84.7323 120.28C87.5786 114.763 85.4137 107.984 79.8969 105.138L79.8974 105.137C58.9969 94.1742 50.8329 68.3789 61.6709 47.372C72.5542 26.2773 98.4775 17.9993 119.572 28.8827L118.197 31.5487ZM56.0137 150.783C75.636 160.907 99.7498 153.207 109.873 133.584C119.997 113.962 112.297 89.8483 92.6747 79.7246L92.6761 79.722C85.8808 76.0386 83.2516 67.5776 86.8121 60.6764C90.418 53.6872 99.007 50.9445 105.996 54.5504L104.621 57.2165C99.1039 54.3703 92.3244 56.5351 89.4781 62.0519C86.6319 67.5686 88.7968 74.3482 94.3135 77.1944L94.3131 77.1953C115.214 88.1577 123.378 113.953 112.54 134.96C101.656 156.055 75.7329 164.333 54.6382 153.449L56.0137 150.783ZM59.274 144.464C75.4171 152.793 95.176 146.563 103.418 130.587C111.661 114.611 105.286 94.8992 89.1428 86.5705L89.1463 86.5636C78.6183 80.7785 74.5613 67.6205 80.1021 56.8811C85.7336 45.9657 99.1477 41.6822 110.063 47.3138L108.688 49.9799C99.2446 45.108 87.64 48.8136 82.7681 58.2566C77.8962 67.6996 81.6019 79.3042 91.0449 84.1761L91.0427 84.1803C108.25 93.4112 115.008 114.667 106.084 131.963C97.0712 149.433 75.4923 156.207 57.8985 147.13L59.274 144.464ZM97.235 127.064C90.7125 139.706 75.1765 144.667 62.5343 138.145L61.1588 140.811C75.2734 148.093 92.6189 142.554 99.9011 128.439C107.092 114.501 101.78 97.4112 88.0536 89.9741L88.0563 89.9688C75.4141 83.4463 70.453 67.9103 76.9755 55.268C83.4979 42.6258 99.034 37.6648 111.676 44.1872L113.052 41.5212C98.9371 34.239 81.5915 39.7779 74.3094 53.8925C67.1181 67.8312 72.43 84.9208 86.1569 92.3578L86.1542 92.3631C98.7964 98.8856 103.757 114.422 97.235 127.064ZM65.5228 132.352C74.984 137.233 86.5189 133.618 91.3065 124.339C96.0941 115.059 92.3551 103.564 82.8939 98.6824L82.8961 98.6781C65.6794 89.4395 58.9982 68.0611 67.9902 50.6323C77.0729 33.0276 98.7073 26.1192 116.312 35.2019L114.936 37.868C98.8042 29.5449 78.9793 35.8755 70.6562 52.0078C62.3332 68.14 68.6638 87.965 84.796 96.288L84.7925 96.2948C95.3054 102.067 99.4485 115.1 93.9726 125.714C88.4067 136.502 75.0447 140.64 64.1473 135.018L65.5228 132.352Z" fill="black"/>
</svg>
